<mxfile host="app.diagrams.net" modified="2023-05-15T08:12:22.950Z" agent="Mozilla/5.0 (Windows NT 10.0; Win64; x64) AppleWebKit/537.36 (KHTML, like Gecko) Chrome/112.0.0.0 Safari/537.36" etag="Shb5MXDtrs6HTVHjC_am" version="21.3.0" type="github">
  <diagram name="Page-1" id="74e2e168-ea6b-b213-b513-2b3c1d86103e">
    <mxGraphModel dx="1964" dy="1080" grid="1" gridSize="10" guides="1" tooltips="1" connect="1" arrows="1" fold="1" page="1" pageScale="1" pageWidth="1100" pageHeight="850" background="none" math="0" shadow="0">
      <root>
        <mxCell id="0" />
        <mxCell id="1" parent="0" />
        <mxCell id="Mo1ELPvoSkXUBXak0MwU-164" value="办理sig" style="rounded=1;whiteSpace=wrap;html=1;shadow=0;labelBackgroundColor=none;strokeWidth=1;fontFamily=Verdana;fontSize=8;align=center;" parent="1" vertex="1">
          <mxGeometry x="1235" y="380" width="60" height="30" as="geometry" />
        </mxCell>
        <mxCell id="Mo1ELPvoSkXUBXak0MwU-165" value="任务办理" style="shape=umlActor;verticalLabelPosition=bottom;verticalAlign=top;html=1;outlineConnect=0;" parent="1" vertex="1">
          <mxGeometry x="1250" y="290" width="30" height="60" as="geometry" />
        </mxCell>
        <mxCell id="Mo1ELPvoSkXUBXak0MwU-166" value="启动流程" style="shape=umlActor;verticalLabelPosition=bottom;verticalAlign=top;html=1;outlineConnect=0;" parent="1" vertex="1">
          <mxGeometry x="290" y="180" width="30" height="60" as="geometry" />
        </mxCell>
        <mxCell id="Cpj89J8UDJRiFhrv2RQw-424" style="edgeStyle=orthogonalEdgeStyle;rounded=0;orthogonalLoop=1;jettySize=auto;html=1;exitX=1;exitY=0.5;exitDx=0;exitDy=0;entryX=0;entryY=0.5;entryDx=0;entryDy=0;" edge="1" parent="1" source="Mo1ELPvoSkXUBXak0MwU-203" target="Cpj89J8UDJRiFhrv2RQw-423">
          <mxGeometry relative="1" as="geometry" />
        </mxCell>
        <mxCell id="Mo1ELPvoSkXUBXak0MwU-203" value="任务" style="rounded=1;whiteSpace=wrap;html=1;shadow=0;labelBackgroundColor=none;strokeWidth=1;fontFamily=Verdana;fontSize=8;align=center;" parent="1" vertex="1">
          <mxGeometry x="590" y="1900" width="100" height="60" as="geometry" />
        </mxCell>
        <mxCell id="Mo1ELPvoSkXUBXak0MwU-205" value="并行流程" style="rounded=1;whiteSpace=wrap;html=1;shadow=0;labelBackgroundColor=none;strokeWidth=1;fontFamily=Verdana;fontSize=8;align=center;" parent="1" vertex="1">
          <mxGeometry x="520" y="3590" width="100" height="60" as="geometry" />
        </mxCell>
        <mxCell id="Mo1ELPvoSkXUBXak0MwU-212" value="查询工作流信息" style="rounded=1;whiteSpace=wrap;html=1;shadow=0;labelBackgroundColor=none;strokeWidth=1;fontFamily=Verdana;fontSize=8;align=center;" parent="1" vertex="1">
          <mxGeometry x="360" y="185" width="100" height="60" as="geometry" />
        </mxCell>
        <mxCell id="Cpj89J8UDJRiFhrv2RQw-533" style="edgeStyle=orthogonalEdgeStyle;rounded=0;orthogonalLoop=1;jettySize=auto;html=1;exitX=1;exitY=0.5;exitDx=0;exitDy=0;entryX=0;entryY=0.5;entryDx=0;entryDy=0;" edge="1" parent="1" source="Mo1ELPvoSkXUBXak0MwU-213" target="Cpj89J8UDJRiFhrv2RQw-532">
          <mxGeometry relative="1" as="geometry" />
        </mxCell>
        <mxCell id="Mo1ELPvoSkXUBXak0MwU-213" value="更新当前sig状态办理完成" style="rounded=1;whiteSpace=wrap;html=1;shadow=0;labelBackgroundColor=none;strokeWidth=1;fontFamily=Verdana;fontSize=8;align=center;" parent="1" vertex="1">
          <mxGeometry x="1335" y="290" width="100" height="60" as="geometry" />
        </mxCell>
        <mxCell id="Mo1ELPvoSkXUBXak0MwU-214" style="edgeStyle=orthogonalEdgeStyle;rounded=1;html=1;labelBackgroundColor=none;startArrow=none;startFill=0;startSize=5;endArrow=classicThin;endFill=1;endSize=5;jettySize=auto;orthogonalLoop=1;strokeWidth=1;fontFamily=Verdana;fontSize=8" parent="1" source="Mo1ELPvoSkXUBXak0MwU-212" target="Mo1ELPvoSkXUBXak0MwU-215" edge="1">
          <mxGeometry relative="1" as="geometry" />
        </mxCell>
        <mxCell id="Cpj89J8UDJRiFhrv2RQw-18" style="edgeStyle=orthogonalEdgeStyle;rounded=0;orthogonalLoop=1;jettySize=auto;html=1;exitX=1;exitY=0.5;exitDx=0;exitDy=0;entryX=0;entryY=0.5;entryDx=0;entryDy=0;" edge="1" parent="1" source="Mo1ELPvoSkXUBXak0MwU-215" target="Cpj89J8UDJRiFhrv2RQw-17">
          <mxGeometry relative="1" as="geometry" />
        </mxCell>
        <mxCell id="Mo1ELPvoSkXUBXak0MwU-215" value="生成流程(流程、分解流程、任务流)维度历史&lt;br&gt;" style="rounded=1;whiteSpace=wrap;html=1;shadow=0;labelBackgroundColor=none;strokeWidth=1;fontFamily=Verdana;fontSize=8;align=center;" parent="1" vertex="1">
          <mxGeometry x="530" y="185" width="100" height="60" as="geometry" />
        </mxCell>
        <mxCell id="Cpj89J8UDJRiFhrv2RQw-17" value="触发处理下一步" style="rounded=1;whiteSpace=wrap;html=1;shadow=0;labelBackgroundColor=none;strokeWidth=1;fontFamily=Verdana;fontSize=8;align=center;" vertex="1" parent="1">
          <mxGeometry x="760" y="185" width="100" height="60" as="geometry" />
        </mxCell>
        <mxCell id="Cpj89J8UDJRiFhrv2RQw-252" style="edgeStyle=orthogonalEdgeStyle;rounded=1;html=1;labelBackgroundColor=none;startArrow=none;startFill=0;startSize=5;endArrow=classicThin;endFill=1;endSize=5;jettySize=auto;orthogonalLoop=1;strokeWidth=1;fontFamily=Verdana;fontSize=8" edge="1" parent="1">
          <mxGeometry relative="1" as="geometry">
            <mxPoint x="340" y="1114.6599999999999" as="sourcePoint" />
            <mxPoint x="410" y="1114.6599999999999" as="targetPoint" />
          </mxGeometry>
        </mxCell>
        <mxCell id="Cpj89J8UDJRiFhrv2RQw-253" value="查询步骤信息" style="rounded=1;whiteSpace=wrap;html=1;shadow=0;labelBackgroundColor=none;strokeWidth=1;fontFamily=Verdana;fontSize=8;align=center;" vertex="1" parent="1">
          <mxGeometry x="410" y="1085" width="100" height="60" as="geometry" />
        </mxCell>
        <mxCell id="Cpj89J8UDJRiFhrv2RQw-254" value="生成任务维度历史&lt;br&gt;level=1/3" style="rounded=1;whiteSpace=wrap;html=1;shadow=0;labelBackgroundColor=none;strokeWidth=1;fontFamily=Verdana;fontSize=8;align=center;" vertex="1" parent="1">
          <mxGeometry x="570" y="1085" width="100" height="60" as="geometry" />
        </mxCell>
        <mxCell id="Cpj89J8UDJRiFhrv2RQw-255" value="" style="edgeStyle=orthogonalEdgeStyle;rounded=0;orthogonalLoop=1;jettySize=auto;html=1;exitX=0.5;exitY=0;exitDx=0;exitDy=0;entryX=0;entryY=0.5;entryDx=0;entryDy=0;" edge="1" parent="1" source="Cpj89J8UDJRiFhrv2RQw-258" target="Cpj89J8UDJRiFhrv2RQw-270">
          <mxGeometry relative="1" as="geometry">
            <mxPoint x="990" y="920" as="targetPoint" />
            <Array as="points">
              <mxPoint x="810" y="780" />
            </Array>
          </mxGeometry>
        </mxCell>
        <mxCell id="Cpj89J8UDJRiFhrv2RQw-256" style="edgeStyle=orthogonalEdgeStyle;rounded=0;orthogonalLoop=1;jettySize=auto;html=1;exitX=0.5;exitY=1;exitDx=0;exitDy=0;entryX=0;entryY=0.5;entryDx=0;entryDy=0;" edge="1" parent="1" source="Cpj89J8UDJRiFhrv2RQw-258" target="Cpj89J8UDJRiFhrv2RQw-321">
          <mxGeometry relative="1" as="geometry" />
        </mxCell>
        <mxCell id="Cpj89J8UDJRiFhrv2RQw-257" style="edgeStyle=orthogonalEdgeStyle;rounded=0;orthogonalLoop=1;jettySize=auto;html=1;exitX=0.5;exitY=1;exitDx=0;exitDy=0;entryX=0;entryY=0.5;entryDx=0;entryDy=0;" edge="1" parent="1" source="Cpj89J8UDJRiFhrv2RQw-258" target="Cpj89J8UDJRiFhrv2RQw-272">
          <mxGeometry relative="1" as="geometry" />
        </mxCell>
        <mxCell id="Cpj89J8UDJRiFhrv2RQw-258" value="处理节点任务" style="rounded=1;whiteSpace=wrap;html=1;shadow=0;labelBackgroundColor=none;strokeWidth=1;fontFamily=Verdana;fontSize=8;align=center;" vertex="1" parent="1">
          <mxGeometry x="760" y="1080" width="100" height="60" as="geometry" />
        </mxCell>
        <mxCell id="Cpj89J8UDJRiFhrv2RQw-259" style="edgeStyle=orthogonalEdgeStyle;rounded=1;html=1;labelBackgroundColor=none;startArrow=none;startFill=0;startSize=5;endArrow=classicThin;endFill=1;endSize=5;jettySize=auto;orthogonalLoop=1;strokeWidth=1;fontFamily=Verdana;fontSize=8;exitX=1.011;exitY=0.593;exitDx=0;exitDy=0;exitPerimeter=0;" edge="1" parent="1" source="Cpj89J8UDJRiFhrv2RQw-253" target="Cpj89J8UDJRiFhrv2RQw-254">
          <mxGeometry relative="1" as="geometry">
            <mxPoint x="349.9999999999998" y="1124.6599999999999" as="sourcePoint" />
            <mxPoint x="419.9999999999998" y="1124.6599999999999" as="targetPoint" />
            <Array as="points">
              <mxPoint x="550" y="1120" />
              <mxPoint x="550" y="1120" />
            </Array>
          </mxGeometry>
        </mxCell>
        <mxCell id="Cpj89J8UDJRiFhrv2RQw-260" value="" style="edgeStyle=orthogonalEdgeStyle;rounded=0;orthogonalLoop=1;jettySize=auto;html=1;" edge="1" parent="1" source="Cpj89J8UDJRiFhrv2RQw-254" target="Cpj89J8UDJRiFhrv2RQw-258">
          <mxGeometry relative="1" as="geometry">
            <Array as="points">
              <mxPoint x="710" y="1115" />
              <mxPoint x="710" y="1115" />
            </Array>
          </mxGeometry>
        </mxCell>
        <mxCell id="Cpj89J8UDJRiFhrv2RQw-261" value="" style="edgeStyle=orthogonalEdgeStyle;rounded=0;orthogonalLoop=1;jettySize=auto;html=1;" edge="1" parent="1">
          <mxGeometry relative="1" as="geometry">
            <mxPoint x="810" y="939.5" as="sourcePoint" />
            <mxPoint x="990" y="940.5" as="targetPoint" />
            <Array as="points">
              <mxPoint x="810" y="940.5" />
              <mxPoint x="990" y="940.5" />
            </Array>
          </mxGeometry>
        </mxCell>
        <mxCell id="Cpj89J8UDJRiFhrv2RQw-262" value="" style="edgeStyle=orthogonalEdgeStyle;rounded=0;orthogonalLoop=1;jettySize=auto;html=1;entryX=0;entryY=0.5;entryDx=0;entryDy=0;" edge="1" parent="1" target="Cpj89J8UDJRiFhrv2RQw-274">
          <mxGeometry relative="1" as="geometry">
            <mxPoint x="810" y="1220" as="sourcePoint" />
            <mxPoint x="970" y="1220" as="targetPoint" />
            <Array as="points">
              <mxPoint x="810" y="1170" />
            </Array>
          </mxGeometry>
        </mxCell>
        <mxCell id="Cpj89J8UDJRiFhrv2RQw-263" value="" style="edgeStyle=orthogonalEdgeStyle;rounded=0;orthogonalLoop=1;jettySize=auto;html=1;" edge="1" parent="1" source="Cpj89J8UDJRiFhrv2RQw-264">
          <mxGeometry relative="1" as="geometry">
            <mxPoint x="1170" y="1020" as="targetPoint" />
          </mxGeometry>
        </mxCell>
        <mxCell id="Cpj89J8UDJRiFhrv2RQw-264" value="自动处理任务" style="rounded=1;whiteSpace=wrap;html=1;shadow=0;labelBackgroundColor=none;strokeWidth=1;fontFamily=Verdana;fontSize=8;align=center;" vertex="1" parent="1">
          <mxGeometry x="990" y="990" width="100" height="60" as="geometry" />
        </mxCell>
        <mxCell id="Cpj89J8UDJRiFhrv2RQw-265" value="" style="edgeStyle=orthogonalEdgeStyle;rounded=0;orthogonalLoop=1;jettySize=auto;html=1;" edge="1" parent="1" source="Cpj89J8UDJRiFhrv2RQw-266" target="Cpj89J8UDJRiFhrv2RQw-280">
          <mxGeometry relative="1" as="geometry" />
        </mxCell>
        <mxCell id="Cpj89J8UDJRiFhrv2RQw-266" value="通知任务" style="rounded=1;whiteSpace=wrap;html=1;shadow=0;labelBackgroundColor=none;strokeWidth=1;fontFamily=Verdana;fontSize=8;align=center;" vertex="1" parent="1">
          <mxGeometry x="990" y="910" width="100" height="60" as="geometry" />
        </mxCell>
        <mxCell id="Cpj89J8UDJRiFhrv2RQw-267" value="" style="edgeStyle=orthogonalEdgeStyle;rounded=0;orthogonalLoop=1;jettySize=auto;html=1;" edge="1" parent="1" source="Cpj89J8UDJRiFhrv2RQw-268" target="Cpj89J8UDJRiFhrv2RQw-278">
          <mxGeometry relative="1" as="geometry" />
        </mxCell>
        <mxCell id="Cpj89J8UDJRiFhrv2RQw-268" value="签审任务" style="rounded=1;whiteSpace=wrap;html=1;shadow=0;labelBackgroundColor=none;strokeWidth=1;fontFamily=Verdana;fontSize=8;align=center;" vertex="1" parent="1">
          <mxGeometry x="990" y="830" width="100" height="60" as="geometry" />
        </mxCell>
        <mxCell id="Cpj89J8UDJRiFhrv2RQw-269" value="" style="edgeStyle=orthogonalEdgeStyle;rounded=0;orthogonalLoop=1;jettySize=auto;html=1;" edge="1" parent="1" source="Cpj89J8UDJRiFhrv2RQw-270" target="Cpj89J8UDJRiFhrv2RQw-276">
          <mxGeometry relative="1" as="geometry" />
        </mxCell>
        <mxCell id="Cpj89J8UDJRiFhrv2RQw-270" value="作业分配任务" style="rounded=1;whiteSpace=wrap;html=1;shadow=0;labelBackgroundColor=none;strokeWidth=1;fontFamily=Verdana;fontSize=8;align=center;" vertex="1" parent="1">
          <mxGeometry x="990" y="750" width="100" height="60" as="geometry" />
        </mxCell>
        <mxCell id="Cpj89J8UDJRiFhrv2RQw-271" value="" style="edgeStyle=orthogonalEdgeStyle;rounded=0;orthogonalLoop=1;jettySize=auto;html=1;" edge="1" parent="1" source="Cpj89J8UDJRiFhrv2RQw-272" target="Cpj89J8UDJRiFhrv2RQw-284">
          <mxGeometry relative="1" as="geometry" />
        </mxCell>
        <mxCell id="Cpj89J8UDJRiFhrv2RQw-272" value="并行流程任务" style="rounded=1;whiteSpace=wrap;html=1;shadow=0;labelBackgroundColor=none;strokeWidth=1;fontFamily=Verdana;fontSize=8;align=center;" vertex="1" parent="1">
          <mxGeometry x="989" y="1261" width="100" height="60" as="geometry" />
        </mxCell>
        <mxCell id="Cpj89J8UDJRiFhrv2RQw-273" value="" style="edgeStyle=orthogonalEdgeStyle;rounded=0;orthogonalLoop=1;jettySize=auto;html=1;" edge="1" parent="1" source="Cpj89J8UDJRiFhrv2RQw-274" target="Cpj89J8UDJRiFhrv2RQw-282">
          <mxGeometry relative="1" as="geometry" />
        </mxCell>
        <mxCell id="Cpj89J8UDJRiFhrv2RQw-274" value="条件任务" style="rounded=1;whiteSpace=wrap;html=1;shadow=0;labelBackgroundColor=none;strokeWidth=1;fontFamily=Verdana;fontSize=8;align=center;" vertex="1" parent="1">
          <mxGeometry x="990" y="1140" width="100" height="60" as="geometry" />
        </mxCell>
        <mxCell id="Cpj89J8UDJRiFhrv2RQw-275" value="" style="edgeStyle=orthogonalEdgeStyle;rounded=0;orthogonalLoop=1;jettySize=auto;html=1;" edge="1" parent="1" source="Cpj89J8UDJRiFhrv2RQw-276" target="Cpj89J8UDJRiFhrv2RQw-291">
          <mxGeometry relative="1" as="geometry" />
        </mxCell>
        <mxCell id="Cpj89J8UDJRiFhrv2RQw-276" value="生成作业sig" style="rounded=1;whiteSpace=wrap;html=1;shadow=0;labelBackgroundColor=none;strokeWidth=1;fontFamily=Verdana;fontSize=8;align=center;" vertex="1" parent="1">
          <mxGeometry x="1170" y="750" width="100" height="60" as="geometry" />
        </mxCell>
        <mxCell id="Cpj89J8UDJRiFhrv2RQw-277" value="" style="edgeStyle=orthogonalEdgeStyle;rounded=0;orthogonalLoop=1;jettySize=auto;html=1;" edge="1" parent="1" source="Cpj89J8UDJRiFhrv2RQw-278" target="Cpj89J8UDJRiFhrv2RQw-292">
          <mxGeometry relative="1" as="geometry" />
        </mxCell>
        <mxCell id="Cpj89J8UDJRiFhrv2RQw-278" value="生成签审sig" style="rounded=1;whiteSpace=wrap;html=1;shadow=0;labelBackgroundColor=none;strokeWidth=1;fontFamily=Verdana;fontSize=8;align=center;" vertex="1" parent="1">
          <mxGeometry x="1170" y="830" width="100" height="60" as="geometry" />
        </mxCell>
        <mxCell id="Cpj89J8UDJRiFhrv2RQw-536" style="edgeStyle=orthogonalEdgeStyle;rounded=0;orthogonalLoop=1;jettySize=auto;html=1;exitX=1;exitY=0.5;exitDx=0;exitDy=0;entryX=0.5;entryY=0;entryDx=0;entryDy=0;" edge="1" parent="1" source="Cpj89J8UDJRiFhrv2RQw-280" target="Cpj89J8UDJRiFhrv2RQw-535">
          <mxGeometry relative="1" as="geometry">
            <mxPoint x="1730" y="880" as="targetPoint" />
            <Array as="points">
              <mxPoint x="1270" y="930" />
              <mxPoint x="1880" y="930" />
            </Array>
          </mxGeometry>
        </mxCell>
        <mxCell id="Cpj89J8UDJRiFhrv2RQw-280" value="生成通知sig" style="rounded=1;whiteSpace=wrap;html=1;shadow=0;labelBackgroundColor=none;strokeWidth=1;fontFamily=Verdana;fontSize=8;align=center;" vertex="1" parent="1">
          <mxGeometry x="1170" y="910" width="100" height="60" as="geometry" />
        </mxCell>
        <mxCell id="Cpj89J8UDJRiFhrv2RQw-281" value="" style="edgeStyle=orthogonalEdgeStyle;rounded=0;orthogonalLoop=1;jettySize=auto;html=1;" edge="1" parent="1" source="Cpj89J8UDJRiFhrv2RQw-282" target="Cpj89J8UDJRiFhrv2RQw-298">
          <mxGeometry relative="1" as="geometry">
            <Array as="points">
              <mxPoint x="1220" y="1130" />
            </Array>
          </mxGeometry>
        </mxCell>
        <mxCell id="Cpj89J8UDJRiFhrv2RQw-282" value="判断TRUE还是FALSE" style="rounded=1;whiteSpace=wrap;html=1;shadow=0;labelBackgroundColor=none;strokeWidth=1;fontFamily=Verdana;fontSize=8;align=center;" vertex="1" parent="1">
          <mxGeometry x="1170" y="1140" width="100" height="60" as="geometry" />
        </mxCell>
        <mxCell id="Cpj89J8UDJRiFhrv2RQw-283" value="" style="edgeStyle=orthogonalEdgeStyle;rounded=0;orthogonalLoop=1;jettySize=auto;html=1;" edge="1" parent="1" source="Cpj89J8UDJRiFhrv2RQw-284" target="Cpj89J8UDJRiFhrv2RQw-287">
          <mxGeometry relative="1" as="geometry" />
        </mxCell>
        <mxCell id="Cpj89J8UDJRiFhrv2RQw-284" value="查询并行流程分支列表" style="rounded=1;whiteSpace=wrap;html=1;shadow=0;labelBackgroundColor=none;strokeWidth=1;fontFamily=Verdana;fontSize=8;align=center;" vertex="1" parent="1">
          <mxGeometry x="1169" y="1261" width="100" height="60" as="geometry" />
        </mxCell>
        <mxCell id="Cpj89J8UDJRiFhrv2RQw-285" value="" style="edgeStyle=orthogonalEdgeStyle;rounded=0;orthogonalLoop=1;jettySize=auto;html=1;" edge="1" parent="1">
          <mxGeometry relative="1" as="geometry">
            <mxPoint x="810" y="859.5" as="sourcePoint" />
            <mxPoint x="990" y="860.5" as="targetPoint" />
            <Array as="points">
              <mxPoint x="810" y="860.5" />
            </Array>
          </mxGeometry>
        </mxCell>
        <mxCell id="Cpj89J8UDJRiFhrv2RQw-286" value="" style="edgeStyle=orthogonalEdgeStyle;rounded=0;orthogonalLoop=1;jettySize=auto;html=1;" edge="1" parent="1" source="Cpj89J8UDJRiFhrv2RQw-287" target="Cpj89J8UDJRiFhrv2RQw-289">
          <mxGeometry relative="1" as="geometry" />
        </mxCell>
        <mxCell id="Cpj89J8UDJRiFhrv2RQw-287" value="判断任务流绑定并行流程条件是否为TRUE" style="rounded=1;whiteSpace=wrap;html=1;shadow=0;labelBackgroundColor=none;strokeWidth=1;fontFamily=Verdana;fontSize=8;align=center;" vertex="1" parent="1">
          <mxGeometry x="1349" y="1261" width="100" height="60" as="geometry" />
        </mxCell>
        <mxCell id="Cpj89J8UDJRiFhrv2RQw-288" value="" style="edgeStyle=orthogonalEdgeStyle;rounded=0;orthogonalLoop=1;jettySize=auto;html=1;" edge="1" parent="1" source="Cpj89J8UDJRiFhrv2RQw-289" target="Cpj89J8UDJRiFhrv2RQw-290">
          <mxGeometry relative="1" as="geometry" />
        </mxCell>
        <mxCell id="Cpj89J8UDJRiFhrv2RQw-289" value="判断任务流条件是否为TRUE" style="rounded=1;whiteSpace=wrap;html=1;shadow=0;labelBackgroundColor=none;strokeWidth=1;fontFamily=Verdana;fontSize=8;align=center;" vertex="1" parent="1">
          <mxGeometry x="1519" y="1261" width="100" height="60" as="geometry" />
        </mxCell>
        <mxCell id="Cpj89J8UDJRiFhrv2RQw-290" value="启动分支" style="rounded=1;whiteSpace=wrap;html=1;shadow=0;labelBackgroundColor=none;strokeWidth=1;fontFamily=Verdana;fontSize=8;align=center;" vertex="1" parent="1">
          <mxGeometry x="1699" y="1261" width="100" height="60" as="geometry" />
        </mxCell>
        <mxCell id="Cpj89J8UDJRiFhrv2RQw-291" value="结束，等待人员办理" style="rounded=1;whiteSpace=wrap;html=1;shadow=0;labelBackgroundColor=none;strokeWidth=1;fontFamily=Verdana;fontSize=8;align=center;" vertex="1" parent="1">
          <mxGeometry x="1350" y="750" width="100" height="60" as="geometry" />
        </mxCell>
        <mxCell id="Cpj89J8UDJRiFhrv2RQw-292" value="结束，等待人员办理" style="rounded=1;whiteSpace=wrap;html=1;shadow=0;labelBackgroundColor=none;strokeWidth=1;fontFamily=Verdana;fontSize=8;align=center;" vertex="1" parent="1">
          <mxGeometry x="1350" y="830" width="100" height="60" as="geometry" />
        </mxCell>
        <mxCell id="Cpj89J8UDJRiFhrv2RQw-295" value="调用API，获取结果" style="rounded=1;whiteSpace=wrap;html=1;shadow=0;labelBackgroundColor=none;strokeWidth=1;fontFamily=Verdana;fontSize=8;align=center;" vertex="1" parent="1">
          <mxGeometry x="1170" y="990" width="100" height="60" as="geometry" />
        </mxCell>
        <mxCell id="Cpj89J8UDJRiFhrv2RQw-296" value="" style="edgeStyle=orthogonalEdgeStyle;rounded=0;orthogonalLoop=1;jettySize=auto;html=1;exitX=0.5;exitY=1;exitDx=0;exitDy=0;entryX=0;entryY=0.5;entryDx=0;entryDy=0;" edge="1" parent="1" source="Cpj89J8UDJRiFhrv2RQw-282" target="Cpj89J8UDJRiFhrv2RQw-307">
          <mxGeometry relative="1" as="geometry">
            <Array as="points">
              <mxPoint x="1220" y="1210" />
              <mxPoint x="1350" y="1210" />
            </Array>
          </mxGeometry>
        </mxCell>
        <mxCell id="Cpj89J8UDJRiFhrv2RQw-544" style="edgeStyle=orthogonalEdgeStyle;rounded=0;orthogonalLoop=1;jettySize=auto;html=1;exitX=1;exitY=0.5;exitDx=0;exitDy=0;" edge="1" parent="1" source="Cpj89J8UDJRiFhrv2RQw-298">
          <mxGeometry relative="1" as="geometry">
            <mxPoint x="1590" y="980" as="targetPoint" />
          </mxGeometry>
        </mxCell>
        <mxCell id="Cpj89J8UDJRiFhrv2RQw-298" value="TRUE" style="rounded=1;whiteSpace=wrap;html=1;shadow=0;labelBackgroundColor=none;strokeWidth=1;fontFamily=Verdana;fontSize=8;align=center;" vertex="1" parent="1">
          <mxGeometry x="1350" y="1100" width="100" height="60" as="geometry" />
        </mxCell>
        <mxCell id="Cpj89J8UDJRiFhrv2RQw-305" value="" style="edgeStyle=orthogonalEdgeStyle;rounded=0;orthogonalLoop=1;jettySize=auto;html=1;" edge="1" parent="1">
          <mxGeometry relative="1" as="geometry">
            <mxPoint x="810" y="1019.5" as="sourcePoint" />
            <mxPoint x="990" y="1020.5" as="targetPoint" />
            <Array as="points">
              <mxPoint x="810" y="1020.5" />
              <mxPoint x="990" y="1020.5" />
            </Array>
          </mxGeometry>
        </mxCell>
        <mxCell id="Cpj89J8UDJRiFhrv2RQw-545" style="edgeStyle=orthogonalEdgeStyle;rounded=0;orthogonalLoop=1;jettySize=auto;html=1;exitX=1;exitY=0.5;exitDx=0;exitDy=0;" edge="1" parent="1" source="Cpj89J8UDJRiFhrv2RQw-307">
          <mxGeometry relative="1" as="geometry">
            <mxPoint x="1590" y="980" as="targetPoint" />
          </mxGeometry>
        </mxCell>
        <mxCell id="Cpj89J8UDJRiFhrv2RQw-307" value="FALSE" style="rounded=1;whiteSpace=wrap;html=1;shadow=0;labelBackgroundColor=none;strokeWidth=1;fontFamily=Verdana;fontSize=8;align=center;" vertex="1" parent="1">
          <mxGeometry x="1350" y="1180" width="100" height="60" as="geometry" />
        </mxCell>
        <mxCell id="Cpj89J8UDJRiFhrv2RQw-319" value="生成任务" style="rounded=1;whiteSpace=wrap;html=1;shadow=0;labelBackgroundColor=none;strokeWidth=1;fontFamily=Verdana;fontSize=8;align=center;" vertex="1" parent="1">
          <mxGeometry x="240" y="1090" width="100" height="60" as="geometry" />
        </mxCell>
        <mxCell id="Cpj89J8UDJRiFhrv2RQw-320" value="" style="edgeStyle=orthogonalEdgeStyle;rounded=0;orthogonalLoop=1;jettySize=auto;html=1;" edge="1" parent="1" source="Cpj89J8UDJRiFhrv2RQw-321" target="Cpj89J8UDJRiFhrv2RQw-323">
          <mxGeometry relative="1" as="geometry" />
        </mxCell>
        <mxCell id="Cpj89J8UDJRiFhrv2RQw-321" value="分解流程任务" style="rounded=1;whiteSpace=wrap;html=1;shadow=0;labelBackgroundColor=none;strokeWidth=1;fontFamily=Verdana;fontSize=8;align=center;" vertex="1" parent="1">
          <mxGeometry x="989" y="1370" width="100" height="60" as="geometry" />
        </mxCell>
        <mxCell id="Cpj89J8UDJRiFhrv2RQw-322" value="" style="edgeStyle=orthogonalEdgeStyle;rounded=0;orthogonalLoop=1;jettySize=auto;html=1;" edge="1" parent="1" source="Cpj89J8UDJRiFhrv2RQw-323" target="Cpj89J8UDJRiFhrv2RQw-325">
          <mxGeometry relative="1" as="geometry" />
        </mxCell>
        <mxCell id="Cpj89J8UDJRiFhrv2RQw-323" value="查询并行流程分支列表" style="rounded=1;whiteSpace=wrap;html=1;shadow=0;labelBackgroundColor=none;strokeWidth=1;fontFamily=Verdana;fontSize=8;align=center;" vertex="1" parent="1">
          <mxGeometry x="1169" y="1370" width="100" height="60" as="geometry" />
        </mxCell>
        <mxCell id="Cpj89J8UDJRiFhrv2RQw-324" value="" style="edgeStyle=orthogonalEdgeStyle;rounded=0;orthogonalLoop=1;jettySize=auto;html=1;" edge="1" parent="1" source="Cpj89J8UDJRiFhrv2RQw-325" target="Cpj89J8UDJRiFhrv2RQw-327">
          <mxGeometry relative="1" as="geometry" />
        </mxCell>
        <mxCell id="Cpj89J8UDJRiFhrv2RQw-325" value="判断任务流绑定并行流程条件是否为TRUE" style="rounded=1;whiteSpace=wrap;html=1;shadow=0;labelBackgroundColor=none;strokeWidth=1;fontFamily=Verdana;fontSize=8;align=center;" vertex="1" parent="1">
          <mxGeometry x="1349" y="1370" width="100" height="60" as="geometry" />
        </mxCell>
        <mxCell id="Cpj89J8UDJRiFhrv2RQw-326" value="" style="edgeStyle=orthogonalEdgeStyle;rounded=0;orthogonalLoop=1;jettySize=auto;html=1;" edge="1" parent="1" source="Cpj89J8UDJRiFhrv2RQw-327" target="Cpj89J8UDJRiFhrv2RQw-328">
          <mxGeometry relative="1" as="geometry" />
        </mxCell>
        <mxCell id="Cpj89J8UDJRiFhrv2RQw-327" value="判断任务流条件是否为TRUE" style="rounded=1;whiteSpace=wrap;html=1;shadow=0;labelBackgroundColor=none;strokeWidth=1;fontFamily=Verdana;fontSize=8;align=center;" vertex="1" parent="1">
          <mxGeometry x="1519" y="1370" width="100" height="60" as="geometry" />
        </mxCell>
        <mxCell id="Cpj89J8UDJRiFhrv2RQw-328" value="启动流程" style="rounded=1;whiteSpace=wrap;html=1;shadow=0;labelBackgroundColor=none;strokeWidth=1;fontFamily=Verdana;fontSize=8;align=center;" vertex="1" parent="1">
          <mxGeometry x="1699" y="1370" width="100" height="60" as="geometry" />
        </mxCell>
        <mxCell id="Cpj89J8UDJRiFhrv2RQw-334" style="edgeStyle=orthogonalEdgeStyle;rounded=0;orthogonalLoop=1;jettySize=auto;html=1;exitX=1;exitY=0.5;exitDx=0;exitDy=0;entryX=0;entryY=0.25;entryDx=0;entryDy=0;" edge="1" parent="1" source="Cpj89J8UDJRiFhrv2RQw-329" target="Mo1ELPvoSkXUBXak0MwU-205">
          <mxGeometry relative="1" as="geometry">
            <Array as="points">
              <mxPoint x="400" y="3515" />
            </Array>
          </mxGeometry>
        </mxCell>
        <mxCell id="Cpj89J8UDJRiFhrv2RQw-368" style="edgeStyle=orthogonalEdgeStyle;rounded=0;orthogonalLoop=1;jettySize=auto;html=1;exitX=1;exitY=0.5;exitDx=0;exitDy=0;entryX=0;entryY=0.5;entryDx=0;entryDy=0;" edge="1" parent="1" source="Cpj89J8UDJRiFhrv2RQw-329" target="Cpj89J8UDJRiFhrv2RQw-351">
          <mxGeometry relative="1" as="geometry">
            <Array as="points">
              <mxPoint x="400" y="3516" />
              <mxPoint x="400" y="4350" />
            </Array>
          </mxGeometry>
        </mxCell>
        <mxCell id="Cpj89J8UDJRiFhrv2RQw-329" value="任务办理" style="rounded=1;whiteSpace=wrap;html=1;shadow=0;labelBackgroundColor=none;strokeWidth=1;fontFamily=Verdana;fontSize=8;align=center;fillColor=#ffe6cc;strokeColor=#d79b00;" vertex="1" parent="1">
          <mxGeometry x="180" y="3486" width="100" height="60" as="geometry" />
        </mxCell>
        <mxCell id="Cpj89J8UDJRiFhrv2RQw-335" style="edgeStyle=orthogonalEdgeStyle;rounded=0;orthogonalLoop=1;jettySize=auto;html=1;exitX=1;exitY=0.5;exitDx=0;exitDy=0;entryX=0;entryY=0.5;entryDx=0;entryDy=0;" edge="1" parent="1" source="Cpj89J8UDJRiFhrv2RQw-336" target="Cpj89J8UDJRiFhrv2RQw-350">
          <mxGeometry relative="1" as="geometry" />
        </mxCell>
        <mxCell id="Cpj89J8UDJRiFhrv2RQw-336" value="执行结果全部成功" style="rounded=1;whiteSpace=wrap;html=1;shadow=0;labelBackgroundColor=none;strokeWidth=1;fontFamily=Verdana;fontSize=8;align=center;" vertex="1" parent="1">
          <mxGeometry x="1190" y="3481" width="100" height="60" as="geometry" />
        </mxCell>
        <mxCell id="Cpj89J8UDJRiFhrv2RQw-337" value="" style="edgeStyle=orthogonalEdgeStyle;rounded=0;orthogonalLoop=1;jettySize=auto;html=1;" edge="1" parent="1" source="Cpj89J8UDJRiFhrv2RQw-338" target="Cpj89J8UDJRiFhrv2RQw-341">
          <mxGeometry relative="1" as="geometry" />
        </mxCell>
        <mxCell id="Cpj89J8UDJRiFhrv2RQw-338" value="执行结果包含失败" style="rounded=1;whiteSpace=wrap;html=1;shadow=0;labelBackgroundColor=none;strokeWidth=1;fontFamily=Verdana;fontSize=8;align=center;" vertex="1" parent="1">
          <mxGeometry x="1180" y="3709" width="100" height="60" as="geometry" />
        </mxCell>
        <mxCell id="Cpj89J8UDJRiFhrv2RQw-339" value="" style="edgeStyle=orthogonalEdgeStyle;rounded=0;orthogonalLoop=1;jettySize=auto;html=1;" edge="1" parent="1" source="Cpj89J8UDJRiFhrv2RQw-341" target="Cpj89J8UDJRiFhrv2RQw-345">
          <mxGeometry relative="1" as="geometry">
            <Array as="points">
              <mxPoint x="1390" y="3799" />
            </Array>
          </mxGeometry>
        </mxCell>
        <mxCell id="Cpj89J8UDJRiFhrv2RQw-340" value="" style="edgeStyle=orthogonalEdgeStyle;rounded=0;orthogonalLoop=1;jettySize=auto;html=1;entryX=0;entryY=0.5;entryDx=0;entryDy=0;" edge="1" parent="1" source="Cpj89J8UDJRiFhrv2RQw-341" target="Cpj89J8UDJRiFhrv2RQw-343">
          <mxGeometry relative="1" as="geometry">
            <mxPoint x="1480" y="3679" as="targetPoint" />
            <Array as="points">
              <mxPoint x="1390" y="3679" />
              <mxPoint x="1510" y="3679" />
            </Array>
          </mxGeometry>
        </mxCell>
        <mxCell id="Cpj89J8UDJRiFhrv2RQw-341" value="判断并行流程是否开启等待分支完成" style="rounded=1;whiteSpace=wrap;html=1;shadow=0;labelBackgroundColor=none;strokeWidth=1;fontFamily=Verdana;fontSize=8;align=center;direction=west;" vertex="1" parent="1">
          <mxGeometry x="1340" y="3709" width="100" height="60" as="geometry" />
        </mxCell>
        <mxCell id="Cpj89J8UDJRiFhrv2RQw-342" value="" style="edgeStyle=orthogonalEdgeStyle;rounded=0;orthogonalLoop=1;jettySize=auto;html=1;" edge="1" parent="1" source="Cpj89J8UDJRiFhrv2RQw-343" target="Cpj89J8UDJRiFhrv2RQw-349">
          <mxGeometry relative="1" as="geometry" />
        </mxCell>
        <mxCell id="Cpj89J8UDJRiFhrv2RQw-343" value="未开启" style="rounded=1;whiteSpace=wrap;html=1;shadow=0;labelBackgroundColor=none;strokeWidth=1;fontFamily=Verdana;fontSize=8;align=center;" vertex="1" parent="1">
          <mxGeometry x="1510" y="3649" width="100" height="60" as="geometry" />
        </mxCell>
        <mxCell id="Cpj89J8UDJRiFhrv2RQw-436" style="edgeStyle=orthogonalEdgeStyle;rounded=0;orthogonalLoop=1;jettySize=auto;html=1;exitX=1;exitY=0.5;exitDx=0;exitDy=0;entryX=0;entryY=0.5;entryDx=0;entryDy=0;" edge="1" parent="1" source="Cpj89J8UDJRiFhrv2RQw-345" target="Cpj89J8UDJRiFhrv2RQw-346">
          <mxGeometry relative="1" as="geometry" />
        </mxCell>
        <mxCell id="Cpj89J8UDJRiFhrv2RQw-345" value="开启" style="rounded=1;whiteSpace=wrap;html=1;shadow=0;labelBackgroundColor=none;strokeWidth=1;fontFamily=Verdana;fontSize=8;align=center;" vertex="1" parent="1">
          <mxGeometry x="1510" y="3769" width="100" height="60" as="geometry" />
        </mxCell>
        <mxCell id="Cpj89J8UDJRiFhrv2RQw-346" value="结束，等待人员办理" style="rounded=1;whiteSpace=wrap;html=1;shadow=0;labelBackgroundColor=none;strokeWidth=1;fontFamily=Verdana;fontSize=8;align=center;" vertex="1" parent="1">
          <mxGeometry x="1729" y="3769" width="100" height="60" as="geometry" />
        </mxCell>
        <mxCell id="Cpj89J8UDJRiFhrv2RQw-347" value="" style="edgeStyle=orthogonalEdgeStyle;rounded=0;orthogonalLoop=1;jettySize=auto;html=1;entryX=0;entryY=0.5;entryDx=0;entryDy=0;" edge="1" parent="1" target="Cpj89J8UDJRiFhrv2RQw-336">
          <mxGeometry relative="1" as="geometry">
            <mxPoint x="920" y="3620" as="sourcePoint" />
            <mxPoint x="990" y="3619" as="targetPoint" />
            <Array as="points">
              <mxPoint x="990" y="3620" />
              <mxPoint x="990" y="3511" />
            </Array>
          </mxGeometry>
        </mxCell>
        <mxCell id="Cpj89J8UDJRiFhrv2RQw-348" style="edgeStyle=orthogonalEdgeStyle;rounded=0;orthogonalLoop=1;jettySize=auto;html=1;entryX=0;entryY=0.5;entryDx=0;entryDy=0;" edge="1" parent="1" target="Cpj89J8UDJRiFhrv2RQw-338">
          <mxGeometry relative="1" as="geometry">
            <mxPoint x="810" y="3619" as="sourcePoint" />
            <Array as="points">
              <mxPoint x="990" y="3619" />
              <mxPoint x="990" y="3739" />
            </Array>
          </mxGeometry>
        </mxCell>
        <mxCell id="Cpj89J8UDJRiFhrv2RQw-349" value="删除生成的未办理的sig" style="rounded=1;whiteSpace=wrap;html=1;shadow=0;labelBackgroundColor=none;strokeWidth=1;fontFamily=Verdana;fontSize=8;align=center;" vertex="1" parent="1">
          <mxGeometry x="1690" y="3649" width="100" height="60" as="geometry" />
        </mxCell>
        <mxCell id="Cpj89J8UDJRiFhrv2RQw-397" style="edgeStyle=orthogonalEdgeStyle;rounded=0;orthogonalLoop=1;jettySize=auto;html=1;exitX=1;exitY=0.5;exitDx=0;exitDy=0;" edge="1" parent="1" source="Cpj89J8UDJRiFhrv2RQw-350">
          <mxGeometry relative="1" as="geometry">
            <mxPoint x="1710" y="3511" as="targetPoint" />
          </mxGeometry>
        </mxCell>
        <mxCell id="Cpj89J8UDJRiFhrv2RQw-350" value="更新并行任务为pass" style="rounded=1;whiteSpace=wrap;html=1;shadow=0;labelBackgroundColor=none;strokeWidth=1;fontFamily=Verdana;fontSize=8;align=center;" vertex="1" parent="1">
          <mxGeometry x="1460" y="3481" width="100" height="60" as="geometry" />
        </mxCell>
        <mxCell id="Cpj89J8UDJRiFhrv2RQw-440" style="edgeStyle=orthogonalEdgeStyle;rounded=0;orthogonalLoop=1;jettySize=auto;html=1;exitX=1;exitY=0.5;exitDx=0;exitDy=0;" edge="1" parent="1" source="Cpj89J8UDJRiFhrv2RQw-351" target="Cpj89J8UDJRiFhrv2RQw-439">
          <mxGeometry relative="1" as="geometry" />
        </mxCell>
        <mxCell id="Cpj89J8UDJRiFhrv2RQw-351" value="" style="rounded=1;whiteSpace=wrap;html=1;shadow=0;labelBackgroundColor=none;strokeWidth=1;fontFamily=Verdana;fontSize=8;align=center;" vertex="1" parent="1">
          <mxGeometry x="540" y="4320" width="100" height="60" as="geometry" />
        </mxCell>
        <mxCell id="Cpj89J8UDJRiFhrv2RQw-369" value="判断任务执行结果" style="rounded=1;whiteSpace=wrap;html=1;shadow=0;labelBackgroundColor=none;strokeWidth=1;fontFamily=Verdana;fontSize=8;align=center;" vertex="1" parent="1">
          <mxGeometry x="1190" y="1900" width="100" height="60" as="geometry" />
        </mxCell>
        <mxCell id="Cpj89J8UDJRiFhrv2RQw-370" style="edgeStyle=orthogonalEdgeStyle;rounded=0;orthogonalLoop=1;jettySize=auto;html=1;exitX=1;exitY=0.5;exitDx=0;exitDy=0;entryX=0;entryY=0.5;entryDx=0;entryDy=0;" edge="1" parent="1" source="Cpj89J8UDJRiFhrv2RQw-372" target="Cpj89J8UDJRiFhrv2RQw-382">
          <mxGeometry relative="1" as="geometry">
            <mxPoint x="1630" y="1698" as="targetPoint" />
          </mxGeometry>
        </mxCell>
        <mxCell id="Cpj89J8UDJRiFhrv2RQw-372" value="成功下一步" style="rounded=1;whiteSpace=wrap;html=1;shadow=0;labelBackgroundColor=none;strokeWidth=1;fontFamily=Verdana;fontSize=8;align=center;" vertex="1" parent="1">
          <mxGeometry x="1440" y="1668" width="100" height="60" as="geometry" />
        </mxCell>
        <mxCell id="Cpj89J8UDJRiFhrv2RQw-375" value="失败下一步" style="rounded=1;whiteSpace=wrap;html=1;shadow=0;labelBackgroundColor=none;strokeWidth=1;fontFamily=Verdana;fontSize=8;align=center;" vertex="1" parent="1">
          <mxGeometry x="1437" y="2008" width="100" height="60" as="geometry" />
        </mxCell>
        <mxCell id="Cpj89J8UDJRiFhrv2RQw-377" value="" style="edgeStyle=orthogonalEdgeStyle;rounded=0;orthogonalLoop=1;jettySize=auto;html=1;" edge="1" parent="1" source="Cpj89J8UDJRiFhrv2RQw-369" target="Cpj89J8UDJRiFhrv2RQw-372">
          <mxGeometry relative="1" as="geometry">
            <Array as="points">
              <mxPoint x="1250" y="1698" />
            </Array>
          </mxGeometry>
        </mxCell>
        <mxCell id="Cpj89J8UDJRiFhrv2RQw-378" value="" style="edgeStyle=orthogonalEdgeStyle;rounded=0;orthogonalLoop=1;jettySize=auto;html=1;" edge="1" parent="1" source="Cpj89J8UDJRiFhrv2RQw-369" target="Cpj89J8UDJRiFhrv2RQw-375">
          <mxGeometry relative="1" as="geometry">
            <Array as="points">
              <mxPoint x="1240" y="2038" />
            </Array>
          </mxGeometry>
        </mxCell>
        <mxCell id="Cpj89J8UDJRiFhrv2RQw-384" style="edgeStyle=orthogonalEdgeStyle;rounded=0;orthogonalLoop=1;jettySize=auto;html=1;exitX=1;exitY=0.5;exitDx=0;exitDy=0;entryX=0;entryY=0.5;entryDx=0;entryDy=0;" edge="1" parent="1" target="Cpj89J8UDJRiFhrv2RQw-387">
          <mxGeometry relative="1" as="geometry">
            <mxPoint x="1855" y="1570" as="targetPoint" />
            <mxPoint x="1725" y="1697.29" as="sourcePoint" />
            <Array as="points">
              <mxPoint x="1805" y="1697" />
              <mxPoint x="1805" y="1570" />
            </Array>
          </mxGeometry>
        </mxCell>
        <mxCell id="Cpj89J8UDJRiFhrv2RQw-390" style="edgeStyle=orthogonalEdgeStyle;rounded=0;orthogonalLoop=1;jettySize=auto;html=1;exitX=1;exitY=0.5;exitDx=0;exitDy=0;entryX=0;entryY=0.5;entryDx=0;entryDy=0;" edge="1" parent="1" source="Cpj89J8UDJRiFhrv2RQw-382" target="Cpj89J8UDJRiFhrv2RQw-388">
          <mxGeometry relative="1" as="geometry" />
        </mxCell>
        <mxCell id="Cpj89J8UDJRiFhrv2RQw-382" value="更新任务状态为pass" style="rounded=1;whiteSpace=wrap;html=1;shadow=0;labelBackgroundColor=none;strokeWidth=1;fontFamily=Verdana;fontSize=8;align=center;" vertex="1" parent="1">
          <mxGeometry x="1625" y="1668" width="100" height="60" as="geometry" />
        </mxCell>
        <mxCell id="Cpj89J8UDJRiFhrv2RQw-387" value="生成任务" style="rounded=1;whiteSpace=wrap;html=1;shadow=0;labelBackgroundColor=none;strokeWidth=1;fontFamily=Verdana;fontSize=8;align=center;" vertex="1" parent="1">
          <mxGeometry x="1865" y="1540" width="100" height="60" as="geometry" />
        </mxCell>
        <mxCell id="Cpj89J8UDJRiFhrv2RQw-388" value="触发任务流/工作流退出，传递结果" style="rounded=1;whiteSpace=wrap;html=1;shadow=0;labelBackgroundColor=none;strokeWidth=1;fontFamily=Verdana;fontSize=8;align=center;" vertex="1" parent="1">
          <mxGeometry x="1878" y="1760" width="100" height="60" as="geometry" />
        </mxCell>
        <mxCell id="Cpj89J8UDJRiFhrv2RQw-391" style="edgeStyle=orthogonalEdgeStyle;rounded=0;orthogonalLoop=1;jettySize=auto;html=1;exitX=1;exitY=0.5;exitDx=0;exitDy=0;entryX=0;entryY=0.5;entryDx=0;entryDy=0;" edge="1" parent="1" target="Cpj89J8UDJRiFhrv2RQw-394" source="Cpj89J8UDJRiFhrv2RQw-375">
          <mxGeometry relative="1" as="geometry">
            <mxPoint x="1592" y="2038" as="targetPoint" />
            <mxPoint x="1502" y="2038" as="sourcePoint" />
          </mxGeometry>
        </mxCell>
        <mxCell id="Cpj89J8UDJRiFhrv2RQw-392" style="edgeStyle=orthogonalEdgeStyle;rounded=0;orthogonalLoop=1;jettySize=auto;html=1;exitX=1;exitY=0.5;exitDx=0;exitDy=0;entryX=0;entryY=0.5;entryDx=0;entryDy=0;" edge="1" parent="1" target="Cpj89J8UDJRiFhrv2RQw-395">
          <mxGeometry relative="1" as="geometry">
            <mxPoint x="1870" y="1910" as="targetPoint" />
            <mxPoint x="1740" y="2037.29" as="sourcePoint" />
            <Array as="points">
              <mxPoint x="1820" y="2037" />
              <mxPoint x="1820" y="1910" />
            </Array>
          </mxGeometry>
        </mxCell>
        <mxCell id="Cpj89J8UDJRiFhrv2RQw-393" style="edgeStyle=orthogonalEdgeStyle;rounded=0;orthogonalLoop=1;jettySize=auto;html=1;exitX=1;exitY=0.5;exitDx=0;exitDy=0;entryX=0;entryY=0.5;entryDx=0;entryDy=0;" edge="1" parent="1" source="Cpj89J8UDJRiFhrv2RQw-394" target="Cpj89J8UDJRiFhrv2RQw-396">
          <mxGeometry relative="1" as="geometry" />
        </mxCell>
        <mxCell id="Cpj89J8UDJRiFhrv2RQw-394" value="更新任务状态为fail" style="rounded=1;whiteSpace=wrap;html=1;shadow=0;labelBackgroundColor=none;strokeWidth=1;fontFamily=Verdana;fontSize=8;align=center;" vertex="1" parent="1">
          <mxGeometry x="1640" y="2008" width="100" height="60" as="geometry" />
        </mxCell>
        <mxCell id="Cpj89J8UDJRiFhrv2RQw-395" value="生成任务" style="rounded=1;whiteSpace=wrap;html=1;shadow=0;labelBackgroundColor=none;strokeWidth=1;fontFamily=Verdana;fontSize=8;align=center;" vertex="1" parent="1">
          <mxGeometry x="1880" y="1880" width="100" height="60" as="geometry" />
        </mxCell>
        <mxCell id="Cpj89J8UDJRiFhrv2RQw-396" value="触发任务流/工作流退出" style="rounded=1;whiteSpace=wrap;html=1;shadow=0;labelBackgroundColor=none;strokeWidth=1;fontFamily=Verdana;fontSize=8;align=center;" vertex="1" parent="1">
          <mxGeometry x="1893" y="2100" width="100" height="60" as="geometry" />
        </mxCell>
        <mxCell id="Cpj89J8UDJRiFhrv2RQw-398" value="触发父级节点的并行任务退出" style="rounded=1;whiteSpace=wrap;html=1;shadow=0;labelBackgroundColor=none;strokeWidth=1;fontFamily=Verdana;fontSize=8;align=center;" vertex="1" parent="1">
          <mxGeometry x="1713" y="3480" width="100" height="60" as="geometry" />
        </mxCell>
        <mxCell id="Cpj89J8UDJRiFhrv2RQw-400" style="edgeStyle=orthogonalEdgeStyle;rounded=0;orthogonalLoop=1;jettySize=auto;html=1;exitX=1;exitY=0.5;exitDx=0;exitDy=0;" edge="1" parent="1">
          <mxGeometry relative="1" as="geometry">
            <mxPoint x="1940" y="3675" as="targetPoint" />
            <mxPoint x="1790" y="3675" as="sourcePoint" />
          </mxGeometry>
        </mxCell>
        <mxCell id="Cpj89J8UDJRiFhrv2RQw-401" value="触发主流程并行任务办理" style="rounded=1;whiteSpace=wrap;html=1;shadow=0;labelBackgroundColor=none;strokeWidth=1;fontFamily=Verdana;fontSize=8;align=center;fillColor=#ffe6cc;fillStyle=auto;strokeColor=#d79b00;" vertex="1" parent="1">
          <mxGeometry x="1943" y="3644" width="100" height="60" as="geometry" />
        </mxCell>
        <mxCell id="Cpj89J8UDJRiFhrv2RQw-427" style="edgeStyle=orthogonalEdgeStyle;rounded=0;orthogonalLoop=1;jettySize=auto;html=1;exitX=0.5;exitY=0;exitDx=0;exitDy=0;" edge="1" parent="1" source="Cpj89J8UDJRiFhrv2RQw-423" target="Cpj89J8UDJRiFhrv2RQw-426">
          <mxGeometry relative="1" as="geometry" />
        </mxCell>
        <mxCell id="Cpj89J8UDJRiFhrv2RQw-571" style="edgeStyle=orthogonalEdgeStyle;rounded=0;orthogonalLoop=1;jettySize=auto;html=1;exitX=1;exitY=0.5;exitDx=0;exitDy=0;entryX=0;entryY=0.5;entryDx=0;entryDy=0;" edge="1" parent="1" source="Cpj89J8UDJRiFhrv2RQw-423" target="Cpj89J8UDJRiFhrv2RQw-570">
          <mxGeometry relative="1" as="geometry" />
        </mxCell>
        <mxCell id="Cpj89J8UDJRiFhrv2RQw-578" style="edgeStyle=orthogonalEdgeStyle;rounded=0;orthogonalLoop=1;jettySize=auto;html=1;exitX=1;exitY=0.5;exitDx=0;exitDy=0;entryX=0;entryY=0.5;entryDx=0;entryDy=0;" edge="1" parent="1" source="Cpj89J8UDJRiFhrv2RQw-423" target="Cpj89J8UDJRiFhrv2RQw-572">
          <mxGeometry relative="1" as="geometry" />
        </mxCell>
        <mxCell id="Cpj89J8UDJRiFhrv2RQw-579" style="edgeStyle=orthogonalEdgeStyle;rounded=0;orthogonalLoop=1;jettySize=auto;html=1;exitX=1;exitY=0.5;exitDx=0;exitDy=0;entryX=0;entryY=0.5;entryDx=0;entryDy=0;" edge="1" parent="1" source="Cpj89J8UDJRiFhrv2RQw-423" target="Cpj89J8UDJRiFhrv2RQw-573">
          <mxGeometry relative="1" as="geometry" />
        </mxCell>
        <mxCell id="Cpj89J8UDJRiFhrv2RQw-580" style="edgeStyle=orthogonalEdgeStyle;rounded=0;orthogonalLoop=1;jettySize=auto;html=1;exitX=1;exitY=0.5;exitDx=0;exitDy=0;entryX=0;entryY=0.5;entryDx=0;entryDy=0;" edge="1" parent="1" source="Cpj89J8UDJRiFhrv2RQw-423" target="Cpj89J8UDJRiFhrv2RQw-574">
          <mxGeometry relative="1" as="geometry" />
        </mxCell>
        <mxCell id="Cpj89J8UDJRiFhrv2RQw-581" style="edgeStyle=orthogonalEdgeStyle;rounded=0;orthogonalLoop=1;jettySize=auto;html=1;exitX=1;exitY=0.5;exitDx=0;exitDy=0;entryX=0;entryY=0.5;entryDx=0;entryDy=0;" edge="1" parent="1" source="Cpj89J8UDJRiFhrv2RQw-423" target="Cpj89J8UDJRiFhrv2RQw-575">
          <mxGeometry relative="1" as="geometry" />
        </mxCell>
        <mxCell id="Cpj89J8UDJRiFhrv2RQw-582" style="edgeStyle=orthogonalEdgeStyle;rounded=0;orthogonalLoop=1;jettySize=auto;html=1;exitX=1;exitY=0.5;exitDx=0;exitDy=0;entryX=0;entryY=0.25;entryDx=0;entryDy=0;" edge="1" parent="1" source="Cpj89J8UDJRiFhrv2RQw-423" target="Cpj89J8UDJRiFhrv2RQw-576">
          <mxGeometry relative="1" as="geometry" />
        </mxCell>
        <mxCell id="Cpj89J8UDJRiFhrv2RQw-423" value="查询当前任务处理结果" style="rounded=1;whiteSpace=wrap;html=1;shadow=0;labelBackgroundColor=none;strokeWidth=1;fontFamily=Verdana;fontSize=8;align=center;" vertex="1" parent="1">
          <mxGeometry x="770" y="1900" width="100" height="60" as="geometry" />
        </mxCell>
        <mxCell id="Cpj89J8UDJRiFhrv2RQw-426" value="结束，等待人员办理" style="rounded=1;whiteSpace=wrap;html=1;shadow=0;labelBackgroundColor=none;strokeWidth=1;fontFamily=Verdana;fontSize=8;align=center;" vertex="1" parent="1">
          <mxGeometry x="770" y="1770" width="100" height="60" as="geometry" />
        </mxCell>
        <mxCell id="Cpj89J8UDJRiFhrv2RQw-428" style="edgeStyle=orthogonalEdgeStyle;rounded=0;orthogonalLoop=1;jettySize=auto;html=1;exitX=1;exitY=0.5;exitDx=0;exitDy=0;entryX=0;entryY=0.5;entryDx=0;entryDy=0;" edge="1" parent="1" target="Cpj89J8UDJRiFhrv2RQw-431">
          <mxGeometry relative="1" as="geometry">
            <mxPoint x="620" y="3620" as="sourcePoint" />
          </mxGeometry>
        </mxCell>
        <mxCell id="Cpj89J8UDJRiFhrv2RQw-435" style="edgeStyle=orthogonalEdgeStyle;rounded=0;orthogonalLoop=1;jettySize=auto;html=1;exitX=1;exitY=0.5;exitDx=0;exitDy=0;entryX=0;entryY=0.5;entryDx=0;entryDy=0;" edge="1" parent="1" source="Cpj89J8UDJRiFhrv2RQw-431" target="Cpj89J8UDJRiFhrv2RQw-434">
          <mxGeometry relative="1" as="geometry">
            <Array as="points">
              <mxPoint x="990" y="3620" />
              <mxPoint x="990" y="3920" />
            </Array>
          </mxGeometry>
        </mxCell>
        <mxCell id="Cpj89J8UDJRiFhrv2RQw-431" value="查询任务流执行结果" style="rounded=1;whiteSpace=wrap;html=1;shadow=0;labelBackgroundColor=none;strokeWidth=1;fontFamily=Verdana;fontSize=8;align=center;" vertex="1" parent="1">
          <mxGeometry x="700" y="3590" width="100" height="60" as="geometry" />
        </mxCell>
        <mxCell id="Cpj89J8UDJRiFhrv2RQw-434" value="未全部成功，不包含失败" style="rounded=1;whiteSpace=wrap;html=1;shadow=0;labelBackgroundColor=none;strokeWidth=1;fontFamily=Verdana;fontSize=8;align=center;" vertex="1" parent="1">
          <mxGeometry x="1190" y="3890" width="100" height="60" as="geometry" />
        </mxCell>
        <mxCell id="Cpj89J8UDJRiFhrv2RQw-437" style="edgeStyle=orthogonalEdgeStyle;rounded=0;orthogonalLoop=1;jettySize=auto;html=1;exitX=1;exitY=0.5;exitDx=0;exitDy=0;entryX=0;entryY=0.5;entryDx=0;entryDy=0;" edge="1" parent="1" target="Cpj89J8UDJRiFhrv2RQw-438">
          <mxGeometry relative="1" as="geometry">
            <mxPoint x="1290" y="3920" as="sourcePoint" />
          </mxGeometry>
        </mxCell>
        <mxCell id="Cpj89J8UDJRiFhrv2RQw-438" value="结束，等待人员办理" style="rounded=1;whiteSpace=wrap;html=1;shadow=0;labelBackgroundColor=none;strokeWidth=1;fontFamily=Verdana;fontSize=8;align=center;" vertex="1" parent="1">
          <mxGeometry x="1409" y="3890" width="100" height="60" as="geometry" />
        </mxCell>
        <mxCell id="Cpj89J8UDJRiFhrv2RQw-445" style="edgeStyle=orthogonalEdgeStyle;rounded=0;orthogonalLoop=1;jettySize=auto;html=1;exitX=0.5;exitY=0;exitDx=0;exitDy=0;entryX=0;entryY=0.5;entryDx=0;entryDy=0;" edge="1" parent="1" source="Cpj89J8UDJRiFhrv2RQw-439" target="Cpj89J8UDJRiFhrv2RQw-442">
          <mxGeometry relative="1" as="geometry" />
        </mxCell>
        <mxCell id="Cpj89J8UDJRiFhrv2RQw-472" style="edgeStyle=orthogonalEdgeStyle;rounded=0;orthogonalLoop=1;jettySize=auto;html=1;exitX=0.5;exitY=1;exitDx=0;exitDy=0;entryX=0;entryY=0.25;entryDx=0;entryDy=0;" edge="1" parent="1" source="Cpj89J8UDJRiFhrv2RQw-439" target="Cpj89J8UDJRiFhrv2RQw-473">
          <mxGeometry relative="1" as="geometry">
            <mxPoint x="760" y="4490" as="targetPoint" />
            <Array as="points">
              <mxPoint x="760" y="4625" />
            </Array>
          </mxGeometry>
        </mxCell>
        <mxCell id="Cpj89J8UDJRiFhrv2RQw-439" value="查询是否为子流程" style="rounded=1;whiteSpace=wrap;html=1;shadow=0;labelBackgroundColor=none;strokeWidth=1;fontFamily=Verdana;fontSize=8;align=center;" vertex="1" parent="1">
          <mxGeometry x="710" y="4320" width="100" height="60" as="geometry" />
        </mxCell>
        <mxCell id="Cpj89J8UDJRiFhrv2RQw-442" value="查询所有子流程执行结果" style="rounded=1;whiteSpace=wrap;html=1;shadow=0;labelBackgroundColor=none;strokeWidth=1;fontFamily=Verdana;fontSize=8;align=center;" vertex="1" parent="1">
          <mxGeometry x="810" y="4155" width="100" height="60" as="geometry" />
        </mxCell>
        <mxCell id="Cpj89J8UDJRiFhrv2RQw-446" style="edgeStyle=orthogonalEdgeStyle;rounded=0;orthogonalLoop=1;jettySize=auto;html=1;exitX=1;exitY=0.5;exitDx=0;exitDy=0;entryX=0;entryY=0.5;entryDx=0;entryDy=0;" edge="1" parent="1" source="Cpj89J8UDJRiFhrv2RQw-447" target="Cpj89J8UDJRiFhrv2RQw-462">
          <mxGeometry relative="1" as="geometry" />
        </mxCell>
        <mxCell id="Cpj89J8UDJRiFhrv2RQw-447" value="执行结果全部成功" style="rounded=1;whiteSpace=wrap;html=1;shadow=0;labelBackgroundColor=none;strokeWidth=1;fontFamily=Verdana;fontSize=8;align=center;" vertex="1" parent="1">
          <mxGeometry x="1310" y="4031" width="100" height="60" as="geometry" />
        </mxCell>
        <mxCell id="Cpj89J8UDJRiFhrv2RQw-448" value="" style="edgeStyle=orthogonalEdgeStyle;rounded=0;orthogonalLoop=1;jettySize=auto;html=1;" edge="1" parent="1" source="Cpj89J8UDJRiFhrv2RQw-449" target="Cpj89J8UDJRiFhrv2RQw-452">
          <mxGeometry relative="1" as="geometry" />
        </mxCell>
        <mxCell id="Cpj89J8UDJRiFhrv2RQw-449" value="执行结果包含失败" style="rounded=1;whiteSpace=wrap;html=1;shadow=0;labelBackgroundColor=none;strokeWidth=1;fontFamily=Verdana;fontSize=8;align=center;" vertex="1" parent="1">
          <mxGeometry x="1300" y="4259" width="100" height="60" as="geometry" />
        </mxCell>
        <mxCell id="Cpj89J8UDJRiFhrv2RQw-450" value="" style="edgeStyle=orthogonalEdgeStyle;rounded=0;orthogonalLoop=1;jettySize=auto;html=1;" edge="1" parent="1" source="Cpj89J8UDJRiFhrv2RQw-452" target="Cpj89J8UDJRiFhrv2RQw-456">
          <mxGeometry relative="1" as="geometry">
            <Array as="points">
              <mxPoint x="1510" y="4349" />
            </Array>
          </mxGeometry>
        </mxCell>
        <mxCell id="Cpj89J8UDJRiFhrv2RQw-451" value="" style="edgeStyle=orthogonalEdgeStyle;rounded=0;orthogonalLoop=1;jettySize=auto;html=1;entryX=0;entryY=0.5;entryDx=0;entryDy=0;" edge="1" parent="1" source="Cpj89J8UDJRiFhrv2RQw-452" target="Cpj89J8UDJRiFhrv2RQw-454">
          <mxGeometry relative="1" as="geometry">
            <mxPoint x="1600" y="4229" as="targetPoint" />
            <Array as="points">
              <mxPoint x="1510" y="4229" />
              <mxPoint x="1630" y="4229" />
            </Array>
          </mxGeometry>
        </mxCell>
        <mxCell id="Cpj89J8UDJRiFhrv2RQw-452" value="判断分解流程是否开启等待分支完成" style="rounded=1;whiteSpace=wrap;html=1;shadow=0;labelBackgroundColor=none;strokeWidth=1;fontFamily=Verdana;fontSize=8;align=center;direction=west;" vertex="1" parent="1">
          <mxGeometry x="1460" y="4259" width="100" height="60" as="geometry" />
        </mxCell>
        <mxCell id="Cpj89J8UDJRiFhrv2RQw-453" value="" style="edgeStyle=orthogonalEdgeStyle;rounded=0;orthogonalLoop=1;jettySize=auto;html=1;" edge="1" parent="1" source="Cpj89J8UDJRiFhrv2RQw-454" target="Cpj89J8UDJRiFhrv2RQw-460">
          <mxGeometry relative="1" as="geometry" />
        </mxCell>
        <mxCell id="Cpj89J8UDJRiFhrv2RQw-454" value="未开启" style="rounded=1;whiteSpace=wrap;html=1;shadow=0;labelBackgroundColor=none;strokeWidth=1;fontFamily=Verdana;fontSize=8;align=center;" vertex="1" parent="1">
          <mxGeometry x="1630" y="4199" width="100" height="60" as="geometry" />
        </mxCell>
        <mxCell id="Cpj89J8UDJRiFhrv2RQw-455" style="edgeStyle=orthogonalEdgeStyle;rounded=0;orthogonalLoop=1;jettySize=auto;html=1;exitX=1;exitY=0.5;exitDx=0;exitDy=0;entryX=0;entryY=0.5;entryDx=0;entryDy=0;" edge="1" parent="1" source="Cpj89J8UDJRiFhrv2RQw-456" target="Cpj89J8UDJRiFhrv2RQw-457">
          <mxGeometry relative="1" as="geometry" />
        </mxCell>
        <mxCell id="Cpj89J8UDJRiFhrv2RQw-456" value="开启" style="rounded=1;whiteSpace=wrap;html=1;shadow=0;labelBackgroundColor=none;strokeWidth=1;fontFamily=Verdana;fontSize=8;align=center;" vertex="1" parent="1">
          <mxGeometry x="1630" y="4319" width="100" height="60" as="geometry" />
        </mxCell>
        <mxCell id="Cpj89J8UDJRiFhrv2RQw-457" value="结束，等待人员办理" style="rounded=1;whiteSpace=wrap;html=1;shadow=0;labelBackgroundColor=none;strokeWidth=1;fontFamily=Verdana;fontSize=8;align=center;" vertex="1" parent="1">
          <mxGeometry x="1823" y="4320" width="100" height="60" as="geometry" />
        </mxCell>
        <mxCell id="Cpj89J8UDJRiFhrv2RQw-458" value="" style="edgeStyle=orthogonalEdgeStyle;rounded=0;orthogonalLoop=1;jettySize=auto;html=1;entryX=0;entryY=0.5;entryDx=0;entryDy=0;" edge="1" parent="1" target="Cpj89J8UDJRiFhrv2RQw-447">
          <mxGeometry relative="1" as="geometry">
            <mxPoint x="1040" y="4170" as="sourcePoint" />
            <mxPoint x="1110" y="4169" as="targetPoint" />
            <Array as="points">
              <mxPoint x="1110" y="4170" />
              <mxPoint x="1110" y="4061" />
            </Array>
          </mxGeometry>
        </mxCell>
        <mxCell id="Cpj89J8UDJRiFhrv2RQw-459" style="edgeStyle=orthogonalEdgeStyle;rounded=0;orthogonalLoop=1;jettySize=auto;html=1;entryX=0;entryY=0.5;entryDx=0;entryDy=0;" edge="1" parent="1" target="Cpj89J8UDJRiFhrv2RQw-449">
          <mxGeometry relative="1" as="geometry">
            <mxPoint x="930" y="4169" as="sourcePoint" />
            <Array as="points">
              <mxPoint x="1110" y="4169" />
              <mxPoint x="1110" y="4289" />
            </Array>
          </mxGeometry>
        </mxCell>
        <mxCell id="Cpj89J8UDJRiFhrv2RQw-460" value="删除生成的未办理的sig" style="rounded=1;whiteSpace=wrap;html=1;shadow=0;labelBackgroundColor=none;strokeWidth=1;fontFamily=Verdana;fontSize=8;align=center;" vertex="1" parent="1">
          <mxGeometry x="1810" y="4199" width="100" height="60" as="geometry" />
        </mxCell>
        <mxCell id="Cpj89J8UDJRiFhrv2RQw-461" style="edgeStyle=orthogonalEdgeStyle;rounded=0;orthogonalLoop=1;jettySize=auto;html=1;exitX=1;exitY=0.5;exitDx=0;exitDy=0;" edge="1" parent="1" source="Cpj89J8UDJRiFhrv2RQw-462">
          <mxGeometry relative="1" as="geometry">
            <mxPoint x="1830" y="4061" as="targetPoint" />
          </mxGeometry>
        </mxCell>
        <mxCell id="Cpj89J8UDJRiFhrv2RQw-462" value="更新子流程为pass" style="rounded=1;whiteSpace=wrap;html=1;shadow=0;labelBackgroundColor=none;strokeWidth=1;fontFamily=Verdana;fontSize=8;align=center;" vertex="1" parent="1">
          <mxGeometry x="1580" y="4031" width="100" height="60" as="geometry" />
        </mxCell>
        <mxCell id="Cpj89J8UDJRiFhrv2RQw-463" value="触发分解流程任务办理" style="rounded=1;whiteSpace=wrap;html=1;shadow=0;labelBackgroundColor=none;strokeWidth=1;fontFamily=Verdana;fontSize=8;align=center;fillColor=#ffe6cc;strokeColor=#d79b00;" vertex="1" parent="1">
          <mxGeometry x="1833" y="4030" width="100" height="60" as="geometry" />
        </mxCell>
        <mxCell id="Cpj89J8UDJRiFhrv2RQw-464" style="edgeStyle=orthogonalEdgeStyle;rounded=0;orthogonalLoop=1;jettySize=auto;html=1;exitX=1;exitY=0.5;exitDx=0;exitDy=0;" edge="1" parent="1">
          <mxGeometry relative="1" as="geometry">
            <mxPoint x="2060" y="4225" as="targetPoint" />
            <mxPoint x="1910" y="4225" as="sourcePoint" />
          </mxGeometry>
        </mxCell>
        <mxCell id="Cpj89J8UDJRiFhrv2RQw-465" value="触发分解流程任务办理" style="rounded=1;whiteSpace=wrap;html=1;shadow=0;labelBackgroundColor=none;strokeWidth=1;fontFamily=Verdana;fontSize=8;align=center;fillColor=#ffe6cc;strokeColor=#d79b00;" vertex="1" parent="1">
          <mxGeometry x="2063" y="4194" width="100" height="60" as="geometry" />
        </mxCell>
        <mxCell id="Cpj89J8UDJRiFhrv2RQw-466" style="edgeStyle=orthogonalEdgeStyle;rounded=0;orthogonalLoop=1;jettySize=auto;html=1;exitX=1;exitY=0.5;exitDx=0;exitDy=0;entryX=0;entryY=0.5;entryDx=0;entryDy=0;" edge="1" parent="1" target="Cpj89J8UDJRiFhrv2RQw-467" source="Cpj89J8UDJRiFhrv2RQw-442">
          <mxGeometry relative="1" as="geometry">
            <mxPoint x="920" y="4170" as="sourcePoint" />
            <Array as="points">
              <mxPoint x="910" y="4170" />
              <mxPoint x="1110" y="4170" />
              <mxPoint x="1110" y="4470" />
            </Array>
          </mxGeometry>
        </mxCell>
        <mxCell id="Cpj89J8UDJRiFhrv2RQw-467" value="未全部成功，不包含失败" style="rounded=1;whiteSpace=wrap;html=1;shadow=0;labelBackgroundColor=none;strokeWidth=1;fontFamily=Verdana;fontSize=8;align=center;" vertex="1" parent="1">
          <mxGeometry x="1310" y="4440" width="100" height="60" as="geometry" />
        </mxCell>
        <mxCell id="Cpj89J8UDJRiFhrv2RQw-468" style="edgeStyle=orthogonalEdgeStyle;rounded=0;orthogonalLoop=1;jettySize=auto;html=1;exitX=1;exitY=0.5;exitDx=0;exitDy=0;entryX=0;entryY=0.5;entryDx=0;entryDy=0;" edge="1" parent="1" target="Cpj89J8UDJRiFhrv2RQw-469">
          <mxGeometry relative="1" as="geometry">
            <mxPoint x="1410" y="4470" as="sourcePoint" />
          </mxGeometry>
        </mxCell>
        <mxCell id="Cpj89J8UDJRiFhrv2RQw-469" value="结束，等待人员办理" style="rounded=1;whiteSpace=wrap;html=1;shadow=0;labelBackgroundColor=none;strokeWidth=1;fontFamily=Verdana;fontSize=8;align=center;" vertex="1" parent="1">
          <mxGeometry x="1529" y="4440" width="100" height="60" as="geometry" />
        </mxCell>
        <mxCell id="Cpj89J8UDJRiFhrv2RQw-477" style="edgeStyle=orthogonalEdgeStyle;rounded=0;orthogonalLoop=1;jettySize=auto;html=1;exitX=0.5;exitY=0;exitDx=0;exitDy=0;entryX=0;entryY=0.25;entryDx=0;entryDy=0;" edge="1" parent="1" source="Cpj89J8UDJRiFhrv2RQw-473" target="Cpj89J8UDJRiFhrv2RQw-475">
          <mxGeometry relative="1" as="geometry" />
        </mxCell>
        <mxCell id="Cpj89J8UDJRiFhrv2RQw-478" style="edgeStyle=orthogonalEdgeStyle;rounded=0;orthogonalLoop=1;jettySize=auto;html=1;exitX=0.5;exitY=1;exitDx=0;exitDy=0;entryX=0;entryY=0.5;entryDx=0;entryDy=0;" edge="1" parent="1" source="Cpj89J8UDJRiFhrv2RQw-473" target="Cpj89J8UDJRiFhrv2RQw-476">
          <mxGeometry relative="1" as="geometry" />
        </mxCell>
        <mxCell id="Cpj89J8UDJRiFhrv2RQw-473" value="判断结果" style="rounded=1;whiteSpace=wrap;html=1;shadow=0;labelBackgroundColor=none;strokeWidth=1;fontFamily=Verdana;fontSize=8;align=center;" vertex="1" parent="1">
          <mxGeometry x="860" y="4610" width="100" height="60" as="geometry" />
        </mxCell>
        <mxCell id="Cpj89J8UDJRiFhrv2RQw-481" style="edgeStyle=orthogonalEdgeStyle;rounded=0;orthogonalLoop=1;jettySize=auto;html=1;exitX=1;exitY=0.5;exitDx=0;exitDy=0;entryX=0;entryY=0.5;entryDx=0;entryDy=0;" edge="1" parent="1" source="Cpj89J8UDJRiFhrv2RQw-475" target="Cpj89J8UDJRiFhrv2RQw-479">
          <mxGeometry relative="1" as="geometry" />
        </mxCell>
        <mxCell id="Cpj89J8UDJRiFhrv2RQw-475" value="成功" style="rounded=1;whiteSpace=wrap;html=1;shadow=0;labelBackgroundColor=none;strokeWidth=1;fontFamily=Verdana;fontSize=8;align=center;" vertex="1" parent="1">
          <mxGeometry x="1130" y="4540" width="100" height="60" as="geometry" />
        </mxCell>
        <mxCell id="Cpj89J8UDJRiFhrv2RQw-482" style="edgeStyle=orthogonalEdgeStyle;rounded=0;orthogonalLoop=1;jettySize=auto;html=1;exitX=1;exitY=0.5;exitDx=0;exitDy=0;" edge="1" parent="1" source="Cpj89J8UDJRiFhrv2RQw-476" target="Cpj89J8UDJRiFhrv2RQw-480">
          <mxGeometry relative="1" as="geometry" />
        </mxCell>
        <mxCell id="Cpj89J8UDJRiFhrv2RQw-476" value="失败" style="rounded=1;whiteSpace=wrap;html=1;shadow=0;labelBackgroundColor=none;strokeWidth=1;fontFamily=Verdana;fontSize=8;align=center;" vertex="1" parent="1">
          <mxGeometry x="1130" y="4700" width="100" height="60" as="geometry" />
        </mxCell>
        <mxCell id="Cpj89J8UDJRiFhrv2RQw-479" value="更新流程为pass" style="rounded=1;whiteSpace=wrap;html=1;shadow=0;labelBackgroundColor=none;strokeWidth=1;fontFamily=Verdana;fontSize=8;align=center;" vertex="1" parent="1">
          <mxGeometry x="1360" y="4540" width="100" height="60" as="geometry" />
        </mxCell>
        <mxCell id="Cpj89J8UDJRiFhrv2RQw-480" value="更新流程为fail" style="rounded=1;whiteSpace=wrap;html=1;shadow=0;labelBackgroundColor=none;strokeWidth=1;fontFamily=Verdana;fontSize=8;align=center;" vertex="1" parent="1">
          <mxGeometry x="1370" y="4700" width="100" height="60" as="geometry" />
        </mxCell>
        <mxCell id="Cpj89J8UDJRiFhrv2RQw-532" value="触发任务处理事件" style="rounded=1;whiteSpace=wrap;html=1;shadow=0;labelBackgroundColor=none;strokeWidth=1;fontFamily=Verdana;fontSize=8;align=center;" vertex="1" parent="1">
          <mxGeometry x="1555" y="290" width="100" height="60" as="geometry" />
        </mxCell>
        <mxCell id="Cpj89J8UDJRiFhrv2RQw-535" value="传递结果，触发任务处理事件" style="rounded=1;whiteSpace=wrap;html=1;shadow=0;labelBackgroundColor=none;strokeWidth=1;fontFamily=Verdana;fontSize=8;align=center;" vertex="1" parent="1">
          <mxGeometry x="1830" y="950" width="100" height="60" as="geometry" />
        </mxCell>
        <mxCell id="Cpj89J8UDJRiFhrv2RQw-538" value="" style="edgeStyle=orthogonalEdgeStyle;rounded=0;orthogonalLoop=1;jettySize=auto;html=1;" edge="1" parent="1" target="Cpj89J8UDJRiFhrv2RQw-539">
          <mxGeometry relative="1" as="geometry">
            <Array as="points">
              <mxPoint x="1220" y="980" />
            </Array>
            <mxPoint x="1220" y="990" as="sourcePoint" />
          </mxGeometry>
        </mxCell>
        <mxCell id="Cpj89J8UDJRiFhrv2RQw-542" style="edgeStyle=orthogonalEdgeStyle;rounded=0;orthogonalLoop=1;jettySize=auto;html=1;exitX=1;exitY=0.5;exitDx=0;exitDy=0;entryX=0;entryY=0.5;entryDx=0;entryDy=0;" edge="1" parent="1" source="Cpj89J8UDJRiFhrv2RQw-539" target="Cpj89J8UDJRiFhrv2RQw-535">
          <mxGeometry relative="1" as="geometry" />
        </mxCell>
        <mxCell id="Cpj89J8UDJRiFhrv2RQw-539" value="成功" style="rounded=1;whiteSpace=wrap;html=1;shadow=0;labelBackgroundColor=none;strokeWidth=1;fontFamily=Verdana;fontSize=8;align=center;" vertex="1" parent="1">
          <mxGeometry x="1350" y="950" width="100" height="60" as="geometry" />
        </mxCell>
        <mxCell id="Cpj89J8UDJRiFhrv2RQw-540" value="" style="edgeStyle=orthogonalEdgeStyle;rounded=0;orthogonalLoop=1;jettySize=auto;html=1;exitX=0.5;exitY=1;exitDx=0;exitDy=0;entryX=0;entryY=0.5;entryDx=0;entryDy=0;" edge="1" parent="1" target="Cpj89J8UDJRiFhrv2RQw-541">
          <mxGeometry relative="1" as="geometry">
            <Array as="points">
              <mxPoint x="1220" y="1060" />
              <mxPoint x="1350" y="1060" />
            </Array>
            <mxPoint x="1220" y="1050" as="sourcePoint" />
          </mxGeometry>
        </mxCell>
        <mxCell id="Cpj89J8UDJRiFhrv2RQw-543" style="edgeStyle=orthogonalEdgeStyle;rounded=0;orthogonalLoop=1;jettySize=auto;html=1;exitX=1;exitY=0.5;exitDx=0;exitDy=0;" edge="1" parent="1" source="Cpj89J8UDJRiFhrv2RQw-541">
          <mxGeometry relative="1" as="geometry">
            <mxPoint x="1590" y="980" as="targetPoint" />
          </mxGeometry>
        </mxCell>
        <mxCell id="Cpj89J8UDJRiFhrv2RQw-541" value="失败" style="rounded=1;whiteSpace=wrap;html=1;shadow=0;labelBackgroundColor=none;strokeWidth=1;fontFamily=Verdana;fontSize=8;align=center;" vertex="1" parent="1">
          <mxGeometry x="1350" y="1030" width="100" height="60" as="geometry" />
        </mxCell>
        <mxCell id="Cpj89J8UDJRiFhrv2RQw-559" style="edgeStyle=orthogonalEdgeStyle;rounded=0;orthogonalLoop=1;jettySize=auto;html=1;" edge="1" parent="1" source="Cpj89J8UDJRiFhrv2RQw-547">
          <mxGeometry relative="1" as="geometry">
            <mxPoint x="1605" y="360" as="targetPoint" />
          </mxGeometry>
        </mxCell>
        <mxCell id="Cpj89J8UDJRiFhrv2RQw-547" value="挂起" style="rounded=1;whiteSpace=wrap;html=1;shadow=0;labelBackgroundColor=none;strokeWidth=1;fontFamily=Verdana;fontSize=8;align=center;" vertex="1" parent="1">
          <mxGeometry x="1210" y="550" width="100" height="60" as="geometry" />
        </mxCell>
        <mxCell id="Cpj89J8UDJRiFhrv2RQw-558" style="edgeStyle=orthogonalEdgeStyle;rounded=0;orthogonalLoop=1;jettySize=auto;html=1;exitX=1;exitY=0.5;exitDx=0;exitDy=0;" edge="1" parent="1" source="Cpj89J8UDJRiFhrv2RQw-548">
          <mxGeometry relative="1" as="geometry">
            <mxPoint x="1605" y="360" as="targetPoint" />
          </mxGeometry>
        </mxCell>
        <mxCell id="Cpj89J8UDJRiFhrv2RQw-548" value="冻结" style="rounded=1;whiteSpace=wrap;html=1;shadow=0;labelBackgroundColor=none;strokeWidth=1;fontFamily=Verdana;fontSize=8;align=center;" vertex="1" parent="1">
          <mxGeometry x="1215" y="460" width="100" height="60" as="geometry" />
        </mxCell>
        <mxCell id="Cpj89J8UDJRiFhrv2RQw-560" style="edgeStyle=orthogonalEdgeStyle;rounded=0;orthogonalLoop=1;jettySize=auto;html=1;exitX=1;exitY=0.5;exitDx=0;exitDy=0;" edge="1" parent="1" source="Cpj89J8UDJRiFhrv2RQw-549">
          <mxGeometry relative="1" as="geometry">
            <mxPoint x="1605" y="370" as="targetPoint" />
          </mxGeometry>
        </mxCell>
        <mxCell id="Cpj89J8UDJRiFhrv2RQw-549" value="任务删除" style="rounded=1;whiteSpace=wrap;html=1;shadow=0;labelBackgroundColor=none;strokeWidth=1;fontFamily=Verdana;fontSize=8;align=center;" vertex="1" parent="1">
          <mxGeometry x="1205" y="630" width="100" height="60" as="geometry" />
        </mxCell>
        <mxCell id="Cpj89J8UDJRiFhrv2RQw-557" style="edgeStyle=orthogonalEdgeStyle;rounded=0;orthogonalLoop=1;jettySize=auto;html=1;exitX=1;exitY=0.5;exitDx=0;exitDy=0;" edge="1" parent="1" source="Cpj89J8UDJRiFhrv2RQw-550">
          <mxGeometry relative="1" as="geometry">
            <mxPoint x="1605" y="300" as="targetPoint" />
            <Array as="points">
              <mxPoint x="1610" y="235" />
              <mxPoint x="1610" y="300" />
            </Array>
          </mxGeometry>
        </mxCell>
        <mxCell id="Cpj89J8UDJRiFhrv2RQw-550" value="撤销" style="rounded=1;whiteSpace=wrap;html=1;shadow=0;labelBackgroundColor=none;strokeWidth=1;fontFamily=Verdana;fontSize=8;align=center;" vertex="1" parent="1">
          <mxGeometry x="1210" y="205" width="100" height="60" as="geometry" />
        </mxCell>
        <mxCell id="Cpj89J8UDJRiFhrv2RQw-556" style="edgeStyle=orthogonalEdgeStyle;rounded=0;orthogonalLoop=1;jettySize=auto;html=1;exitX=1;exitY=0.5;exitDx=0;exitDy=0;" edge="1" parent="1" source="Cpj89J8UDJRiFhrv2RQw-551" target="Cpj89J8UDJRiFhrv2RQw-532">
          <mxGeometry relative="1" as="geometry">
            <Array as="points">
              <mxPoint x="1610" y="160" />
            </Array>
          </mxGeometry>
        </mxCell>
        <mxCell id="Cpj89J8UDJRiFhrv2RQw-551" value="跳转" style="rounded=1;whiteSpace=wrap;html=1;shadow=0;labelBackgroundColor=none;strokeWidth=1;fontFamily=Verdana;fontSize=8;align=center;" vertex="1" parent="1">
          <mxGeometry x="1210" y="130" width="100" height="60" as="geometry" />
        </mxCell>
        <mxCell id="Cpj89J8UDJRiFhrv2RQw-566" style="edgeStyle=orthogonalEdgeStyle;rounded=0;orthogonalLoop=1;jettySize=auto;html=1;entryX=0.5;entryY=0;entryDx=0;entryDy=0;" edge="1" parent="1" source="Cpj89J8UDJRiFhrv2RQw-552" target="Cpj89J8UDJRiFhrv2RQw-565">
          <mxGeometry relative="1" as="geometry" />
        </mxCell>
        <mxCell id="Cpj89J8UDJRiFhrv2RQw-552" value="流程删除" style="rounded=1;whiteSpace=wrap;html=1;shadow=0;labelBackgroundColor=none;strokeWidth=1;fontFamily=Verdana;fontSize=8;align=center;" vertex="1" parent="1">
          <mxGeometry x="350" y="350" width="100" height="60" as="geometry" />
        </mxCell>
        <mxCell id="Cpj89J8UDJRiFhrv2RQw-564" style="edgeStyle=orthogonalEdgeStyle;rounded=0;orthogonalLoop=1;jettySize=auto;html=1;exitX=1;exitY=0.5;exitDx=0;exitDy=0;entryX=0;entryY=0.5;entryDx=0;entryDy=0;" edge="1" parent="1" source="Cpj89J8UDJRiFhrv2RQw-553" target="Cpj89J8UDJRiFhrv2RQw-565">
          <mxGeometry relative="1" as="geometry">
            <mxPoint x="650" y="540" as="targetPoint" />
          </mxGeometry>
        </mxCell>
        <mxCell id="Cpj89J8UDJRiFhrv2RQw-553" value="流程终止" style="rounded=1;whiteSpace=wrap;html=1;shadow=0;labelBackgroundColor=none;strokeWidth=1;fontFamily=Verdana;fontSize=8;align=center;" vertex="1" parent="1">
          <mxGeometry x="340" y="520" width="100" height="60" as="geometry" />
        </mxCell>
        <mxCell id="Cpj89J8UDJRiFhrv2RQw-561" style="edgeStyle=orthogonalEdgeStyle;rounded=0;orthogonalLoop=1;jettySize=auto;html=1;" edge="1" parent="1" source="Cpj89J8UDJRiFhrv2RQw-555">
          <mxGeometry relative="1" as="geometry">
            <mxPoint x="1600" y="290" as="targetPoint" />
            <Array as="points">
              <mxPoint x="1610" y="90" />
              <mxPoint x="1610" y="290" />
            </Array>
          </mxGeometry>
        </mxCell>
        <mxCell id="Cpj89J8UDJRiFhrv2RQw-555" value="激活" style="rounded=1;whiteSpace=wrap;html=1;shadow=0;labelBackgroundColor=none;strokeWidth=1;fontFamily=Verdana;fontSize=8;align=center;" vertex="1" parent="1">
          <mxGeometry x="1210" y="60" width="100" height="60" as="geometry" />
        </mxCell>
        <mxCell id="Cpj89J8UDJRiFhrv2RQw-565" value="触发流程处理事件" style="rounded=1;whiteSpace=wrap;html=1;shadow=0;labelBackgroundColor=none;strokeWidth=1;fontFamily=Verdana;fontSize=8;align=center;" vertex="1" parent="1">
          <mxGeometry x="650" y="520" width="100" height="60" as="geometry" />
        </mxCell>
        <mxCell id="Cpj89J8UDJRiFhrv2RQw-569" value="任务办理" style="rounded=1;whiteSpace=wrap;html=1;shadow=0;labelBackgroundColor=none;strokeWidth=1;fontFamily=Verdana;fontSize=8;align=center;fillColor=#ffe6cc;strokeColor=#d79b00;" vertex="1" parent="1">
          <mxGeometry x="300" y="1900" width="100" height="60" as="geometry" />
        </mxCell>
        <mxCell id="Cpj89J8UDJRiFhrv2RQw-583" style="edgeStyle=orthogonalEdgeStyle;rounded=0;orthogonalLoop=1;jettySize=auto;html=1;exitX=1;exitY=0.5;exitDx=0;exitDy=0;entryX=0;entryY=0.5;entryDx=0;entryDy=0;" edge="1" parent="1" source="Cpj89J8UDJRiFhrv2RQw-570" target="Cpj89J8UDJRiFhrv2RQw-369">
          <mxGeometry relative="1" as="geometry">
            <Array as="points">
              <mxPoint x="1100" y="1740" />
              <mxPoint x="1100" y="1930" />
            </Array>
          </mxGeometry>
        </mxCell>
        <mxCell id="Cpj89J8UDJRiFhrv2RQw-570" value="作业分配" style="rounded=1;whiteSpace=wrap;html=1;shadow=0;labelBackgroundColor=none;strokeWidth=1;fontFamily=Verdana;fontSize=8;align=center;" vertex="1" parent="1">
          <mxGeometry x="940" y="1710" width="100" height="60" as="geometry" />
        </mxCell>
        <mxCell id="Cpj89J8UDJRiFhrv2RQw-584" style="edgeStyle=orthogonalEdgeStyle;rounded=0;orthogonalLoop=1;jettySize=auto;html=1;exitX=1;exitY=0.5;exitDx=0;exitDy=0;" edge="1" parent="1" source="Cpj89J8UDJRiFhrv2RQw-572">
          <mxGeometry relative="1" as="geometry">
            <mxPoint x="1190" y="1930" as="targetPoint" />
            <Array as="points">
              <mxPoint x="1100" y="1820" />
              <mxPoint x="1100" y="1930" />
            </Array>
          </mxGeometry>
        </mxCell>
        <mxCell id="Cpj89J8UDJRiFhrv2RQw-572" value="签审任务" style="rounded=1;whiteSpace=wrap;html=1;shadow=0;labelBackgroundColor=none;strokeWidth=1;fontFamily=Verdana;fontSize=8;align=center;" vertex="1" parent="1">
          <mxGeometry x="940" y="1790" width="100" height="60" as="geometry" />
        </mxCell>
        <mxCell id="Cpj89J8UDJRiFhrv2RQw-585" style="edgeStyle=orthogonalEdgeStyle;rounded=0;orthogonalLoop=1;jettySize=auto;html=1;exitX=1;exitY=0.5;exitDx=0;exitDy=0;" edge="1" parent="1" source="Cpj89J8UDJRiFhrv2RQw-573">
          <mxGeometry relative="1" as="geometry">
            <mxPoint x="1190" y="1930" as="targetPoint" />
            <Array as="points">
              <mxPoint x="1100" y="1900" />
              <mxPoint x="1100" y="1931" />
              <mxPoint x="1190" y="1931" />
            </Array>
          </mxGeometry>
        </mxCell>
        <mxCell id="Cpj89J8UDJRiFhrv2RQw-573" value="条件任务" style="rounded=1;whiteSpace=wrap;html=1;shadow=0;labelBackgroundColor=none;strokeWidth=1;fontFamily=Verdana;fontSize=8;align=center;" vertex="1" parent="1">
          <mxGeometry x="940" y="1860" width="100" height="60" as="geometry" />
        </mxCell>
        <mxCell id="Cpj89J8UDJRiFhrv2RQw-586" style="edgeStyle=orthogonalEdgeStyle;rounded=0;orthogonalLoop=1;jettySize=auto;html=1;exitX=1;exitY=0.5;exitDx=0;exitDy=0;" edge="1" parent="1" source="Cpj89J8UDJRiFhrv2RQw-574">
          <mxGeometry relative="1" as="geometry">
            <mxPoint x="1190" y="1930" as="targetPoint" />
            <Array as="points">
              <mxPoint x="1100" y="1990" />
              <mxPoint x="1100" y="1930" />
            </Array>
          </mxGeometry>
        </mxCell>
        <mxCell id="Cpj89J8UDJRiFhrv2RQw-574" value="自动处理任务" style="rounded=1;whiteSpace=wrap;html=1;shadow=0;labelBackgroundColor=none;strokeWidth=1;fontFamily=Verdana;fontSize=8;align=center;" vertex="1" parent="1">
          <mxGeometry x="940" y="1950" width="100" height="60" as="geometry" />
        </mxCell>
        <mxCell id="Cpj89J8UDJRiFhrv2RQw-587" style="edgeStyle=orthogonalEdgeStyle;rounded=0;orthogonalLoop=1;jettySize=auto;html=1;exitX=1;exitY=0.5;exitDx=0;exitDy=0;" edge="1" parent="1" source="Cpj89J8UDJRiFhrv2RQw-575">
          <mxGeometry relative="1" as="geometry">
            <mxPoint x="1190" y="1930" as="targetPoint" />
            <Array as="points">
              <mxPoint x="1100" y="2070" />
              <mxPoint x="1100" y="1930" />
            </Array>
          </mxGeometry>
        </mxCell>
        <mxCell id="Cpj89J8UDJRiFhrv2RQw-575" value="并行任务" style="rounded=1;whiteSpace=wrap;html=1;shadow=0;labelBackgroundColor=none;strokeWidth=1;fontFamily=Verdana;fontSize=8;align=center;" vertex="1" parent="1">
          <mxGeometry x="940" y="2040" width="100" height="60" as="geometry" />
        </mxCell>
        <mxCell id="Cpj89J8UDJRiFhrv2RQw-588" style="edgeStyle=orthogonalEdgeStyle;rounded=0;orthogonalLoop=1;jettySize=auto;html=1;exitX=1;exitY=0.5;exitDx=0;exitDy=0;" edge="1" parent="1" source="Cpj89J8UDJRiFhrv2RQw-576">
          <mxGeometry relative="1" as="geometry">
            <mxPoint x="1190" y="1930" as="targetPoint" />
            <Array as="points">
              <mxPoint x="1100" y="2155" />
              <mxPoint x="1100" y="1930" />
            </Array>
          </mxGeometry>
        </mxCell>
        <mxCell id="Cpj89J8UDJRiFhrv2RQw-576" value="分解流程" style="rounded=1;whiteSpace=wrap;html=1;shadow=0;labelBackgroundColor=none;strokeWidth=1;fontFamily=Verdana;fontSize=8;align=center;" vertex="1" parent="1">
          <mxGeometry x="940" y="2120" width="100" height="60" as="geometry" />
        </mxCell>
      </root>
    </mxGraphModel>
  </diagram>
</mxfile>
